<?xml version="1.0" encoding="UTF-8" standalone="no"?> <svg height="512pt" viewBox="-66 0 512 512" width="512pt" xmlns="http://www.w3.org/2000/svg"><g fill="#020202"><path d="m90 190c0 55.140625 44.859375 100 100 100s100-44.859375 100-100-44.859375-100-100-100-100 44.859375-100 100zm100-80c44.113281 0 80 35.886719 80 80s-35.886719 80-80 80-80-35.886719-80-80 35.886719-80 80-80zm0 0"/><path d="m200 10c0 5.523438-4.476562 10-10 10s-10-4.476562-10-10 4.476562-10 10-10 10 4.476562 10 10zm0 0"/><path d="m142.871094 5.894531c-84.121094 21.472657-142.871094 97.179688-142.871094 184.105469 0 79.226562 27.214844 111.644531 182 318 1.890625 2.519531 4.851562 4 8 4s6.109375-1.480469 8-4c154.757812-206.316406 182-238.800781 182-318 0-86.925781-58.75-162.632812-142.871094-184.105469-5.351562-1.363281-10.796875 1.863281-12.164062 7.214844-1.363282 5.351563 1.867187 10.796875 7.21875 12.164063 75.253906 19.207031 127.816406 86.949218 127.816406 164.726562 0 70.929688-22.304688 98.535156-170 295.335938-147.636719-196.738282-170-224.339844-170-295.335938 0-77.777344 52.5625-145.519531 127.816406-164.726562 5.355469-1.367188 8.582032-6.8125 7.21875-12.164063-1.367187-5.351563-6.8125-8.582031-12.164062-7.214844zm0 0"/></g></svg>